{"title":"Life.Of.Pi.2012.DVDSCREENER.XviD-DEYA","uid":8037880,"size":2179711131,"categoryP":"video","categoryS":"movies","magnet":"?xt=urn:btih:a9d3d79070bc6c54082902800e22e1186305dfa5&amp;dn=Life.Of.Pi.2012.DVDSCREENER.XviD-DEYA&amp;tr=udp%3A%2F%2Ftracker.openbittorrent.com%3A80&amp;tr=udp%3A%2F%2Fopen.demonii.com%3A1337&amp;tr=udp%3A%2F%2Ftracker.coppersurfer.tk%3A6969&amp;tr=udp%3A%2F%2Fexodus.desync.com%3A6969","seeders":0,"leechers":1,"uploader":"SaM","files":3,"time":1358553549,"description":" &lt;a href=&quot;http://www.imdb.com/title/tt0454876/&quot; rel=&quot;nofollow&quot; target=&quot;_NEW&quot;&gt;http://www.imdb.com/title/tt0454876/&lt;/a&gt;\n\nTiTLE: Life.Of.Pi.2012.DVDSCREENER.XviD-DEYA\n\nGeneral\nComplete name : C:UsersAdministratorDesktopLife.Of.Pi.2012.DVDSCREENER.XviD-DEYA\nFormat : AVI\nFormat/Info : Audio Video Interleave\nFormat profile : OpenDML\nFile size : 2.01 GiB\nDuration : 2h 6mn\nOverall bit rate : 2 271 Kbps\nWriting library : VirtualDub build 31536/release\n\nVideo\nID : 0\nFormat : MPEG-4 Visual\nFormat profile : Advanced Simple@L5\nFormat settings, BVOP : 2\nFormat settings, QPel : No\nFormat settings, GMC : No warppoints\nFormat settings, Matrix : Default (H.263)\nMuxing mode : Packed bitstream\nCodec ID : XVID\nCodec ID/Hint : XviD\nDuration : 2h 6mn\nBit rate : 1 938 Kbps\nWidth : 688 pixels\nHeight : 366 pixels\nDisplay aspect ratio : 1.880\nFrame rate : 23.976 fps\nColor space : YUV\nChroma subsampling : 4:2:0\nBit depth : 8 bits\nScan type : Progressive\nCompression mode : Lossy\nBits/(Pixel*Frame) : 0.321\nStream size : 1.72 GiB (85%)\nWriting library : XviD 64\n\nAudio\nID : 1\nFormat : AC-3\nFormat/Info : Audio Coding 3\nMode extension : CM (complete main)\nCodec ID : 2000\nDuration : 2h 6mn\nBit rate mode : Constant\nBit rate : 320 Kbps\nChannel(s) : 2 channels\nChannel positions : Front: L R\nSampling rate : 48.0 KHz\nBit depth : 16 bits\nCompression mode : Lossy\nStream size : 291 MiB (14%)\nAlignment : Split accross interleaves\nInterleave, duration : 42 ms (1.00 video frame)\nInterleave, preload duration : 500 ms\n\nSOURCE: DVDSCR M4V\n\nSUBTiTLES: HC ENGLiSH WHEN NEEDED!\n\nNOTES: did my cleaning a proper encode no rushing ting ;)\n\nSCREENiES:\n &lt;a href=&quot;\nhttp://img29.imageshack.us/img29/2371/vlcsnap2013011821h46m17.png&quot; rel=&quot;nofollow&quot; target=&quot;_NEW&quot;&gt;\nhttp://img29.imageshack.us/img29/2371/vlcsnap2013011821h46m17.png&lt;/a&gt;\n &lt;a href=&quot;\nhttp://img855.imageshack.us/img855/4882/vlcsnap2013011821h50m49.png&quot; rel=&quot;nofollow&quot; target=&quot;_NEW&quot;&gt;\nhttp://img855.imageshack.us/img855/4882/vlcsnap2013011821h50m49.png&lt;/a&gt;\n &lt;a href=&quot;\nhttp://img27.imageshack.us/img27/9417/vlcsnap2013011821h51m50.png&quot; rel=&quot;nofollow&quot; target=&quot;_NEW&quot;&gt;\nhttp://img27.imageshack.us/img27/9417/vlcsnap2013011821h51m50.png&lt;/a&gt;\n &lt;a href=&quot;\nhttp://img850.imageshack.us/img850/896/vlcsnap2013011822h40m31.png&quot; rel=&quot;nofollow&quot; target=&quot;_NEW&quot;&gt;\nhttp://img850.imageshack.us/img850/896/vlcsnap2013011822h40m31.png&lt;/a&gt;\n &lt;a href=&quot;\nhttp://img818.imageshack.us/img818/6897/vlcsnap2013011821h59m54.png&quot; rel=&quot;nofollow&quot; target=&quot;_NEW&quot;&gt;\nhttp://img818.imageshack.us/img818/6897/vlcsnap2013011821h59m54.png&lt;/a&gt;\n &lt;a href=&quot;\nhttp://img14.imageshack.us/img14/267/vlcsnap2013011821h52m08.png&quot; rel=&quot;nofollow&quot; target=&quot;_NEW&quot;&gt;\nhttp://img14.imageshack.us/img14/267/vlcsnap2013011821h52m08.png&lt;/a&gt;\n &lt;a href=&quot;\nhttp://img43.imageshack.us/img43/3225/vlcsnap2013011822h07m59.png&quot; rel=&quot;nofollow&quot; target=&quot;_NEW&quot;&gt;\nhttp://img43.imageshack.us/img43/3225/vlcsnap2013011822h07m59.png&lt;/a&gt;\n &lt;a href=&quot;\nhttp://img651.imageshack.us/img651/8008/vlcsnap2013011822h02m52.png&quot; rel=&quot;nofollow&quot; target=&quot;_NEW&quot;&gt;\nhttp://img651.imageshack.us/img651/8008/vlcsnap2013011822h02m52.png&lt;/a&gt;","torrent":{"xt":"urn:btih:a9d3d79070bc6c54082902800e22e1186305dfa5","amp;dn":"Life.Of.Pi.2012.DVDSCREENER.XviD-DEYA","amp;tr":["udp%3A%2F%2Ftracker.openbittorrent.com%3A80","udp%3A%2F%2Fopen.demonii.com%3A1337","udp%3A%2F%2Ftracker.coppersurfer.tk%3A6969","udp%3A%2F%2Fexodus.desync.com%3A6969"],"infoHash":"a9d3d79070bc6c54082902800e22e1186305dfa5","infoHashBuffer":{"type":"Buffer","data":[169,211,215,144,112,188,108,84,8,41,2,128,14,34,225,24,99,5,223,165]},"announce":[],"urlList":[]}}